# xmcd CD database file
#
# Track frame offsets:
#	150
#	12595
#	25716
#	42324
#	53773
#	64437
#	75325
#	87709
#	105684
#	119778
#	131977
#	144056
#	157230
#	165487
#	178223
#	188298
#	198931
#	212005
#	220322
#	230082
#	241356
#	256716
#	264741
#	273407
#	283824
#	289270
#
# Disc length: 3977 seconds
#
# Revision: 0
# Processed by: cddbd v1.5.2PL0 Copyright (c) Steve Scherf et al.
# Submitted via: jetAudio 7
#
DISCID=8e0f871a
DTITLE=Chet Atkins - 8 Classic Albums Vol. 2 - Disc 4
DYEAR=1900
DGENRE=Country
TTITLE0=It Ain't Necessarily So
TTITLE1=My Dear Little Sweetheart
TTITLE2=Stay As Sweet As You Are
TTITLE3=Monte Carlo Melody
TTITLE4=When Day Is Done
TTITLE5=My Prayer
TTITLE6=Rock-A-Bye Bay
TTITLE7=Vanessa
TTITLE8=Intermezzo
TTITLE9=Hi-Lili, Hi-Lo
TTITLE10=East Of The Sun (And West Of The Moon)
TTITLE11=Goin' Home
TTITLE12=Jingle Bell Rock
TTITLE13=Winter Wonderland
TTITLE14=Jolly Old St. Nicholas
TTITLE15=White Christmas
TTITLE16=Blue Christmas
TTITLE17=Jingle Bells
TTITLE18=Silver Bells
TTITLE19=Little Drummer Boy
TTITLE20=The Coventry Carol - God Rest Ye, Merry Gentlemen
TTITLE21=The First Noel
TTITLE22=Hark! The Herald Angels Sing
TTITLE23=O Come, All Ye Faithful
TTITLE24=Deck The Halls
TTITLE25=Silent Night
EXTD=
EXTT0=
EXTT1=
EXTT2=
EXTT3=
EXTT4=
EXTT5=
EXTT6=
EXTT7=
EXTT8=
EXTT9=
EXTT10=
EXTT11=
EXTT12=
EXTT13=
EXTT14=
EXTT15=
EXTT16=
EXTT17=
EXTT18=
EXTT19=
EXTT20=
EXTT21=
EXTT22=
EXTT23=
EXTT24=
EXTT25=
PLAYORDER=
